<svg width="34" height="33" viewBox="0 0 34 33" fill="none" xmlns="http://www.w3.org/2000/svg">
<path fill-rule="evenodd" clip-rule="evenodd" d="M34 16.5C34 25.6127 26.3888 33 17 33C7.61116 33 0 25.6127 0 16.5C0 7.3873 7.61116 0 17 0C26.3888 0 34 7.3873 34 16.5ZM22.1988 17.1679C22.2091 16.363 22.4219 15.5738 22.8172 14.8737C23.2126 14.1736 23.7777 13.5854 24.4601 13.1638C24.0266 12.5417 23.4548 12.0296 22.79 11.6684C22.1252 11.3072 21.3857 11.1068 20.6303 11.083C19.6447 10.9791 18.6775 11.3649 17.887 11.6802C17.3852 11.8803 16.9547 12.0521 16.6358 12.0521C16.2731 12.0521 15.8302 11.8733 15.3338 11.6729C14.6849 11.4109 13.9447 11.1121 13.1733 11.1281C12.2927 11.1567 11.4345 11.414 10.6824 11.875C9.93018 12.336 9.30966 12.985 8.88125 13.7587C7.02547 16.9878 8.40971 21.7335 10.1874 24.3437C11.0768 25.6218 12.1163 27.0495 13.4764 26.9989C14.0934 26.9732 14.5312 26.788 14.9834 26.5967C15.5066 26.3754 16.0492 26.1459 16.911 26.1459C17.7236 26.1459 18.2429 26.3682 18.7413 26.5816C19.2191 26.7861 19.6776 26.9824 20.3568 26.9667C21.785 26.9434 22.6848 25.6829 23.543 24.3927C24.182 23.4819 24.6738 22.4754 25 21.4103C24.1703 21.0576 23.4622 20.4673 22.9641 19.7129C22.4659 18.9584 22.1998 18.0734 22.1988 17.1679ZM20.6464 6C20.7393 7.21918 20.3557 8.42674 19.5769 9.36623C19.2041 9.83234 18.7308 10.2073 18.1928 10.463C17.6548 10.7186 17.0661 10.8482 16.4711 10.8421C16.4331 10.2558 16.5105 9.66773 16.6988 9.11151C16.8871 8.55529 17.1827 8.04183 17.5685 7.60047C18.3578 6.69702 19.4567 6.12558 20.6464 6Z" fill="white"/>
</svg>
