<svg width="34" height="33" viewBox="0 0 34 33" fill="none" xmlns="http://www.w3.org/2000/svg">
<ellipse cx="17" cy="16.5" rx="17" ry="16.5" fill="white"/>
<path d="M22.1988 17.1679C22.2091 16.3629 22.4219 15.5737 22.8172 14.8736C23.2126 14.1736 23.7777 13.5854 24.4601 13.1638C24.0266 12.5416 23.4548 12.0296 22.79 11.6684C22.1252 11.3072 21.3857 11.1067 20.6303 11.083C19.019 10.913 17.4569 12.052 16.6358 12.052C15.7988 12.052 14.5346 11.0998 13.1733 11.128C12.2927 11.1566 11.4345 11.4139 10.6824 11.875C9.93018 12.336 9.30966 12.985 8.88125 13.7587C7.02547 16.9878 8.40971 21.7335 10.1874 24.3436C11.0768 25.6217 12.1163 27.0494 13.4764 26.9988C14.8074 26.9433 15.3044 26.1458 16.911 26.1458C18.5027 26.1458 18.9691 26.9988 20.3568 26.9666C21.785 26.9433 22.6848 25.6828 23.543 24.3926C24.182 23.4819 24.6738 22.4753 25 21.4103C24.1703 21.0576 23.4622 20.4672 22.9641 19.7128C22.4659 18.9584 22.1998 18.0733 22.1988 17.1679Z" fill="black"/>
<path d="M19.5762 9.36623C20.3549 8.42674 20.7385 7.21918 20.6456 6C19.4559 6.12558 18.357 6.69702 17.5678 7.60047C17.1819 8.04183 16.8864 8.55529 16.6981 9.11151C16.5097 9.66773 16.4324 10.2558 16.4703 10.8421C17.0654 10.8482 17.6541 10.7186 18.1921 10.463C18.73 10.2073 19.2033 9.83234 19.5762 9.36623Z" fill="black"/>
</svg>
