<svg width="35" height="35" viewBox="0 0 35 35" fill="none" xmlns="http://www.w3.org/2000/svg">
<path d="M17.5 0C7.8506 0 0 7.8506 0 17.5C0 27.1494 7.8506 35 17.5 35C27.1494 35 35 27.1494 35 17.5C35 7.8506 27.1494 0 17.5 0ZM23.8362 21.9331C23.9664 22.0568 24.0706 22.2054 24.1425 22.37C24.2145 22.5347 24.2527 22.7121 24.255 22.8918C24.2573 23.0714 24.2236 23.2497 24.1559 23.4162C24.0882 23.5826 23.9879 23.7338 23.8609 23.8609C23.7338 23.9879 23.5826 24.0882 23.4162 24.1559C23.2497 24.2236 23.0714 24.2573 22.8918 24.255C22.7121 24.2527 22.5347 24.2145 22.37 24.1425C22.2054 24.0706 22.0568 23.9664 21.9331 23.8362L17.5 19.404L13.0669 23.8362C12.8124 24.078 12.4735 24.2108 12.1225 24.2063C11.7715 24.2018 11.4361 24.0604 11.1879 23.8121C10.9396 23.5639 10.7982 23.2285 10.7937 22.8775C10.7892 22.5265 10.922 22.1876 11.1638 21.9331L15.596 17.5L11.1638 13.0669C10.922 12.8124 10.7892 12.4735 10.7937 12.1225C10.7982 11.7715 10.9396 11.4361 11.1879 11.1879C11.4361 10.9396 11.7715 10.7982 12.1225 10.7937C12.4735 10.7892 12.8124 10.922 13.0669 11.1638L17.5 15.596L21.9331 11.1638C22.1876 10.922 22.5265 10.7892 22.8775 10.7937C23.2285 10.7982 23.5639 10.9396 23.8121 11.1879C24.0604 11.4361 24.2018 11.7715 24.2063 12.1225C24.2108 12.4735 24.078 12.8124 23.8362 13.0669L19.404 17.5L23.8362 21.9331Z" fill="white"/>
</svg>
