<svg xmlns="http://www.w3.org/2000/svg" viewBox="0 0 24 24"><defs><style>.cls-1{fill:#fff;fill-rule:evenodd;}</style></defs><g id="Layer_2" data-name="Layer 2"><g id="Layer_1-2" data-name="Layer 1"><path class="cls-1" d="M12,0A12,12,0,1,0,24,12,12,12,0,0,0,12,0Zm7,17.56v-.24l-1.09-1.07a.33.33,0,0,1-.12-.31V8.06a.33.33,0,0,1,.12-.31L19,6.68V6.44H15.13l-2.76,6.88L9.24,6.44H5.18v.24l1.3,1.57a.54.54,0,0,1,.18.46V14.9a.69.69,0,0,1-.19.61L5,17.3v.23H9.17V17.3L7.7,15.51a.73.73,0,0,1-.2-.61V9.55l3.66,8h.42l3.15-8v6.36c0,.17,0,.2-.12.31l-1.13,1.1v.24Z"/></g></g></svg>